# xmcd
#
# Track frame offsets: 
#        150
#        14283
#        33988
#        55188
#        76319
#        94553
#        116189
#        137432
#        152182
#        170106
#        189731
#        210378
#
# Disc length: 3007 seconds
#
# Revision: 0
# Processed by: cddbd v1.5.2PL0 Copyright (c) Steve Scherf et al.
# Submitted via: ExactAudioCopy v0.99pb5
#
DISCID=9a0bbd0c
DTITLE=John Parker - John Parker
DYEAR=2008
DGENRE=Blues
TTITLE0=I Got Me a New Car
TTITLE1=The Price of Fame
TTITLE2=I Ain't Gonna Give Up
TTITLE3=Forget All My Fears
TTITLE4=Love's Gonna Find You
TTITLE5=I've Got the Blues Baby
TTITLE6=Hopeless Romance
TTITLE7=My Valentine
TTITLE8=Early in the Morning
TTITLE9=I'll Never Be Free
TTITLE10=Queen of the Damned
TTITLE11=Waitin' for the Water to Rise
EXTD=
EXTT0=
EXTT1=
EXTT2=
EXTT3=
EXTT4=
EXTT5=
EXTT6=
EXTT7=
EXTT8=
EXTT9=
EXTT10=
EXTT11=
PLAYORDER=
